<svg
  xmlns="http://www.w3.org/2000/svg"
  viewBox="0 0 64 64"
  role="img"
  aria-label="SakiVault"
>
  <defs>
      <linearGradient id="petal-gradient" x1="14" y1="12" x2="51" y2="52">
  <stop offset="0%" stop-color="#ff6b8b" />
  <stop offset="100%" stop-color="#ffb3c4" />
</linearGradient>
  </defs>

  <rect width="64" height="64" rx="18" fill="#111622" />

  <g fill="url(#petal-gradient)">
    <path d="M32 31C22 27 17 19 20 12c2-6 10-8 15-4 7 5 6 16-3 23Z" />
    <path
      d="M32 31C22 27 17 19 20 12c2-6 10-8 15-4 7 5 6 16-3 23Z"
      transform="rotate(120 32 32)"
    />
    <path
      d="M32 31C22 27 17 19 20 12c2-6 10-8 15-4 7 5 6 16-3 23Z"
      transform="rotate(240 32 32)"
    />
  </g>

  <circle cx="32" cy="32" r="11" fill="#111622" />

  <path d="M29 25.8 40 32 29 38.2Z" fill="#f0f3f8" />
</svg>